<svg data-v-423bf9ae="" xmlns="http://www.w3.org/2000/svg" viewBox="0 0 436 90" class="iconLeftSlogan"><!----><!----><!----><g data-v-423bf9ae="" id="bc89abe7-cc74-4136-915b-d42c56e48098" fill="#790B79" transform="matrix(4.464285536890945,0,0,4.464285536890945,105.62500320889362,-11.249998990978533)"><path d="M0.98 2.80L0.98 12.60L2.52 12.60L2.52 2.80ZM5.88 8.68C5.88 8.28 6.01 7.96 6.27 7.71C6.53 7.47 6.90 7.35 7.38 7.35C7.76 7.35 8.04 7.45 8.21 7.66C8.38 7.87 8.47 8.21 8.47 8.68L8.47 12.60L9.94 12.60L9.94 8.68C9.94 8.28 10.07 7.96 10.33 7.71C10.59 7.47 10.96 7.35 11.44 7.35C11.82 7.35 12.10 7.45 12.27 7.66C12.44 7.87 12.53 8.21 12.53 8.68L12.53 12.60L14 12.60L14 8.40C14 6.81 13.29 6.02 11.86 6.02C10.92 6.02 10.20 6.41 9.70 7.20C9.37 6.41 8.73 6.02 7.80 6.02C7.00 6.02 6.36 6.36 5.88 7.03L5.88 6.16L4.41 6.16L4.41 12.60L5.88 12.60ZM16.39 8.01C17.04 7.54 17.70 7.31 18.38 7.31C19.29 7.31 19.74 7.56 19.74 8.05L19.74 8.90C19.27 8.65 18.72 8.53 18.07 8.53C17.25 8.53 16.57 8.72 16.02 9.11C15.47 9.51 15.19 10.06 15.19 10.78C15.19 11.43 15.42 11.92 15.88 12.25C16.33 12.58 16.89 12.74 17.54 12.74C18.04 12.74 18.48 12.65 18.87 12.46C19.25 12.27 19.54 12.01 19.74 11.68L19.74 12.60L21.21 12.60L21.21 7.98C21.21 7.32 20.95 6.82 20.44 6.50C19.93 6.18 19.24 6.02 18.38 6.02C17.47 6.02 16.62 6.30 15.85 6.87ZM16.60 10.64C16.60 10.36 16.76 10.12 17.07 9.90C17.37 9.70 17.78 9.59 18.27 9.59C18.80 9.59 19.29 9.67 19.74 9.84L19.74 10.08C19.74 10.65 19.59 11.05 19.30 11.27C19.00 11.49 18.56 11.61 17.96 11.61C17.06 11.61 16.60 11.28 16.60 10.64ZM23.95 9.38C23.95 8.73 24.14 8.22 24.52 7.87C24.90 7.52 25.40 7.35 26.01 7.35C26.56 7.35 27.03 7.52 27.42 7.85C27.81 8.18 28 8.69 28 9.38C28 10.07 27.81 10.58 27.42 10.91C27.03 11.24 26.56 11.41 26.01 11.41C25.40 11.41 24.90 11.23 24.52 10.88C24.14 10.54 23.95 10.03 23.95 9.38ZM22.53 13.02C22.53 13.92 22.84 14.63 23.46 15.16C24.08 15.69 24.90 15.96 25.93 15.96C26.88 15.96 27.71 15.65 28.41 15.04C29.12 14.43 29.47 13.57 29.47 12.46L29.47 6.16L28 6.16L28 7.31C27.49 6.45 26.73 6.02 25.73 6.02C24.81 6.02 24.03 6.31 23.41 6.90C22.78 7.49 22.47 8.32 22.47 9.38C22.47 10.44 22.78 11.27 23.41 11.86C24.03 12.45 24.81 12.74 25.73 12.74C26.73 12.74 27.49 12.31 28 11.45L28 12.46C28 13.15 27.79 13.67 27.38 14.03C26.96 14.38 26.48 14.56 25.93 14.56C25.33 14.56 24.86 14.41 24.52 14.11C24.18 13.80 24.01 13.44 24.01 13.02ZM35.88 8.69L32.33 8.69C32.39 8.26 32.60 7.92 32.96 7.66C33.32 7.41 33.74 7.28 34.20 7.28C35.19 7.28 35.75 7.75 35.88 8.69ZM32.30 9.73L37.42 9.73C37.44 9.61 37.45 9.45 37.45 9.25C37.45 8.25 37.16 7.45 36.57 6.88C35.98 6.31 35.19 6.02 34.20 6.02C33.19 6.02 32.38 6.33 31.75 6.96C31.12 7.59 30.80 8.40 30.80 9.38C30.80 10.38 31.10 11.19 31.70 11.81C32.30 12.43 33.14 12.74 34.20 12.74C35.61 12.74 36.64 12.24 37.30 11.24L36.19 10.56C35.84 11.13 35.17 11.41 34.20 11.41C33.69 11.41 33.26 11.27 32.91 10.98C32.57 10.69 32.36 10.27 32.30 9.73ZM43.96 8.68L46.86 8.68C46.68 9.52 46.30 10.20 45.72 10.71C45.15 11.22 44.42 11.48 43.54 11.48C42.49 11.48 41.60 11.13 40.89 10.43C40.18 9.73 39.83 8.82 39.83 7.70C39.83 6.58 40.18 5.67 40.89 4.97C41.60 4.27 42.49 3.92 43.54 3.92C44.22 3.92 44.85 4.07 45.42 4.38C46.00 4.68 46.44 5.09 46.75 5.61L47.81 4.62C46.94 3.22 45.52 2.52 43.54 2.52C42.03 2.52 40.78 3.00 39.78 3.97C38.79 4.93 38.29 6.18 38.29 7.70C38.29 9.22 38.79 10.46 39.78 11.43C40.78 12.40 42.03 12.88 43.54 12.88C45.08 12.88 46.29 12.39 47.18 11.40C48.07 10.41 48.51 9.13 48.51 7.56L48.51 7.28L43.96 7.28ZM54.43 8.69L50.88 8.69C50.94 8.26 51.15 7.92 51.51 7.66C51.87 7.41 52.29 7.28 52.75 7.28C53.74 7.28 54.30 7.75 54.43 8.69ZM50.85 9.73L55.97 9.73C55.99 9.61 56.00 9.45 56.00 9.25C56.00 8.25 55.71 7.45 55.12 6.88C54.53 6.31 53.74 6.02 52.75 6.02C51.74 6.02 50.93 6.33 50.30 6.96C49.67 7.59 49.35 8.40 49.35 9.38C49.35 10.38 49.65 11.19 50.25 11.81C50.86 12.43 51.69 12.74 52.75 12.74C54.16 12.74 55.19 12.24 55.85 11.24L54.74 10.56C54.39 11.13 53.72 11.41 52.75 11.41C52.24 11.41 51.81 11.27 51.46 10.98C51.12 10.69 50.91 10.27 50.85 9.73ZM58.80 7.15L58.80 6.16L57.33 6.16L57.33 12.60L58.80 12.60L58.80 8.96C58.80 8.51 58.97 8.13 59.30 7.82C59.63 7.51 60.01 7.35 60.44 7.35C60.85 7.35 61.16 7.45 61.36 7.64C61.57 7.83 61.67 8.18 61.67 8.68L61.67 12.60L63.14 12.60L63.14 8.54C63.14 7.63 62.94 6.98 62.55 6.59C62.15 6.21 61.59 6.02 60.86 6.02C59.97 6.02 59.29 6.40 58.80 7.15ZM64.61 3.64C64.61 3.89 64.70 4.11 64.89 4.28C65.08 4.46 65.30 4.55 65.56 4.55C65.82 4.55 66.05 4.46 66.23 4.28C66.42 4.11 66.51 3.89 66.51 3.64C66.51 3.39 66.42 3.17 66.23 3.00C66.05 2.82 65.82 2.73 65.56 2.73C65.30 2.73 65.08 2.82 64.89 3.00C64.70 3.17 64.61 3.39 64.61 3.64ZM64.82 6.16L64.82 12.60L66.30 12.60L66.30 6.16ZM71.97 6.16L70.43 8.19L68.89 6.16L67.21 6.16L69.59 9.28L67.07 12.60L68.75 12.60L70.43 10.39L72.11 12.60L73.79 12.60L71.27 9.28L73.65 6.16Z"></path></g><!----><g data-v-423bf9ae="" id="c1c381dd-000c-4e16-b1d4-1db8e7cb807f" transform="matrix(2.8125,0,0,2.8125,0,0)" stroke="none" fill="#986491"><path d="M9.571 20.464l8.064 4.47 8.065-4.47v-8.939l-8.065-4.469-8.064 4.469z"></path><path d="M32 0H0v32h32l-5.054-5.172H5.054V5.172h21.892z"></path></g><!----><g data-v-423bf9ae="" id="9ca27fcb-851c-44cf-b5ea-fea4dc47d378" fill="#FFFFFF" transform="matrix(1.7950827981353343,0,0,1.7950827981353343,107.97154909613636,56.2303268706099)"><path d="M2.18 2.21L1.13 2.21L1.13 11.48L2.18 11.48ZM19.25 2.21L15.99 6.61L12.67 2.21L11.45 2.21L11.45 11.48L12.50 11.48L12.50 3.81L15.99 8.22L19.42 3.81L19.42 11.48L20.47 11.48L20.47 2.21ZM33.89 2.21L32.58 2.21L28.64 11.48L29.81 11.48L30.94 8.79L35.53 8.79L36.67 11.48L37.83 11.48ZM31.35 7.83L33.24 3.30L35.13 7.83ZM49.80 2.10C47.01 2.10 45.23 4.21 45.23 6.85C45.23 9.48 46.94 11.59 49.77 11.59C51.45 11.59 52.54 10.74 53.13 9.84L53.13 11.48L54.10 11.48L54.10 6.55L49.74 6.55L49.74 7.50L53.13 7.50C53.13 9.44 51.53 10.57 49.85 10.57C47.60 10.57 46.28 8.93 46.28 6.85C46.28 4.76 47.63 3.12 49.88 3.12C51.30 3.12 52.30 3.74 52.86 4.73L54.01 4.73C53.33 3.18 51.79 2.10 49.80 2.10ZM69.76 3.22L69.76 2.21L62.94 2.21L62.94 11.48L69.76 11.48L69.76 10.47L63.99 10.47L63.99 7.35L69.15 7.35L69.15 6.33L63.99 6.33L63.99 3.22ZM82.26 2.10C79.48 2.10 77.70 4.21 77.70 6.85C77.70 9.48 79.41 11.59 82.24 11.59C83.92 11.59 85.01 10.74 85.60 9.84L85.60 11.48L86.56 11.48L86.56 6.55L82.21 6.55L82.21 7.50L85.60 7.50C85.60 9.44 84 10.57 82.32 10.57C80.07 10.57 78.75 8.93 78.75 6.85C78.75 4.76 80.09 3.12 82.35 3.12C83.76 3.12 84.77 3.74 85.33 4.73L86.48 4.73C85.79 3.18 84.25 2.10 82.26 2.10ZM102.23 3.22L102.23 2.21L95.41 2.21L95.41 11.48L102.23 11.48L102.23 10.47L96.46 10.47L96.46 7.35L101.61 7.35L101.61 6.33L96.46 6.33L96.46 3.22ZM117.87 2.21L117.87 10.01L112.14 2.21L110.92 2.21L110.92 11.48L111.97 11.48L111.97 3.65L117.70 11.48L118.92 11.48L118.92 2.21ZM129.23 2.21L128.18 2.21L128.18 11.48L129.23 11.48ZM145.74 2.21L144.41 2.21L141.65 5.85L138.91 2.21L137.58 2.21L141.02 6.69L137.33 11.48L138.66 11.48L141.65 7.50L144.66 11.48L145.99 11.48L142.30 6.69Z"></path></g></svg>